<?xml version="1.0" standalone="no"?><!DOCTYPE svg PUBLIC "-//W3C//DTD SVG 1.1//EN" "http://www.w3.org/Graphics/SVG/1.1/DTD/svg11.dtd"><svg width="200.1953125" height="200" viewBox="0 0 200.1953125 200" version="1.1" xmlns="http://www.w3.org/2000/svg" xmlns:xlink="http://www.w3.org/1999/xlink"><defs><style type="text/css"><![CDATA[

]]></style></defs><g class="transform-group"><g transform="scale(0.1953125, 0.1953125)"><path d="M448.128 448l13.12 0L448.128 434.88 448.128 448zM511.36 0c0.256 0 0.512 0.128 0.832 0.128C512.448 0.128 512.704 0 512.96 0L511.36 0zM576.128 448 576.128 434.88 563.008 448 576.128 448zM987.264 437.376 584.832 34.944C564.416 14.464 538.688 3.456 512.128 0.128 485.632 3.456 459.904 14.464 439.488 34.944L37.056 437.376c-49.408 49.408-49.408 129.472 0 178.88L60.8 640l67.328 0 0 256c0 70.72 57.28 128 128 128l512 0c70.72 0 128-57.28 128-128l0-256 67.328 0 23.744-23.744C1036.672 566.848 1036.672 486.784 987.264 437.376zM768.128 512l0 320c0 35.328-28.672 64-64 64l-64 0 0-256 13.12 0-13.12-13.12L640.128 576l-256 0 0 50.88L371.008 640l13.12 0 0 256-64 0c-35.328 0-64-28.672-64-64L256.128 512 155.584 512c2.624-10.88 7.104-21.376 15.616-29.888l313.024-313.024c8-8 17.792-12.416 27.904-15.232 10.176 2.816 19.968 7.232 27.968 15.232l313.024 313.024C861.632 490.624 866.112 501.12 868.736 512L768.128 512z" fill="#272636"></path></g></g></svg>